solid CATIA STL
  facet normal  1.000000e+000  0.000000e+000  -0.000000e+000
    outer loop
      vertex  5.000000e+002  0.000000e+000  4.804009e-015
      vertex  5.000000e+002  3.514508e+003 -7.990935e-014
      vertex  5.000000e+002  3.514508e+003  5.000000e+001
    endloop
  endfacet
  facet normal  1.000000e+000  0.000000e+000  0.000000e+000
    outer loop
      vertex  5.000000e+002  0.000000e+000  4.804009e-015
      vertex  5.000000e+002  3.514508e+003  5.000000e+001
      vertex  5.000000e+002  2.914508e+003  5.000000e+001
    endloop
  endfacet
  facet normal  1.000000e+000  0.000000e+000  -0.000000e+000
    outer loop
      vertex  5.000000e+002  0.000000e+000  4.804009e-015
      vertex  5.000000e+002  2.914508e+003  5.000000e+001
      vertex  5.000000e+002  2.914508e+003  1.000000e+002
    endloop
  endfacet
  facet normal  1.000000e+000  0.000000e+000  0.000000e+000
    outer loop
      vertex  5.000000e+002  0.000000e+000  4.804009e-015
      vertex  5.000000e+002  2.914508e+003  1.000000e+002
      vertex  5.000000e+002  2.314508e+003  1.000000e+002
    endloop
  endfacet
  facet normal  1.000000e+000  0.000000e+000  -0.000000e+000
    outer loop
      vertex  5.000000e+002  0.000000e+000  4.804009e-015
      vertex  5.000000e+002  2.314508e+003  1.000000e+002
      vertex  5.000000e+002  2.314508e+003  1.500000e+002
    endloop
  endfacet
  facet normal  1.000000e+000  0.000000e+000  0.000000e+000
    outer loop
      vertex  5.000000e+002  0.000000e+000  4.804009e-015
      vertex  5.000000e+002  2.314508e+003  1.500000e+002
      vertex  5.000000e+002  1.714508e+003  1.500000e+002
    endloop
  endfacet
  facet normal -1.000000e+000  0.000000e+000  -0.000000e+000
    outer loop
      vertex -5.000000e+002  0.000000e+000  4.804009e-015
      vertex -5.000000e+002  1.714508e+003  1.500000e+002
      vertex -5.000000e+002  2.314508e+003  1.500000e+002
    endloop
  endfacet
  facet normal -1.000000e+000  0.000000e+000  -0.000000e+000
    outer loop
      vertex -5.000000e+002  0.000000e+000  4.804009e-015
      vertex -5.000000e+002  2.314508e+003  1.500000e+002
      vertex -5.000000e+002  2.314508e+003  1.000000e+002
    endloop
  endfacet
  facet normal -1.000000e+000  0.000000e+000  -0.000000e+000
    outer loop
      vertex -5.000000e+002  0.000000e+000  4.804009e-015
      vertex -5.000000e+002  2.314508e+003  1.000000e+002
      vertex -5.000000e+002  2.914508e+003  1.000000e+002
    endloop
  endfacet
  facet normal -1.000000e+000  0.000000e+000  -0.000000e+000
    outer loop
      vertex -5.000000e+002  0.000000e+000  4.804009e-015
      vertex -5.000000e+002  2.914508e+003  1.000000e+002
      vertex -5.000000e+002  2.914508e+003  5.000000e+001
    endloop
  endfacet
  facet normal -1.000000e+000  0.000000e+000  -0.000000e+000
    outer loop
      vertex -5.000000e+002  0.000000e+000  4.804009e-015
      vertex -5.000000e+002  2.914508e+003  5.000000e+001
      vertex -5.000000e+002  3.514508e+003  5.000000e+001
    endloop
  endfacet
  facet normal -1.000000e+000  0.000000e+000  -0.000000e+000
    outer loop
      vertex -5.000000e+002  0.000000e+000  4.804009e-015
      vertex -5.000000e+002  3.514508e+003  5.000000e+001
      vertex -5.000000e+002  3.514508e+003 -7.990935e-014
    endloop
  endfacet
  facet normal  0.000000e+000 -8.715574e-002  9.961947e-001
    outer loop
      vertex -5.000000e+002  0.000000e+000  4.804009e-015
      vertex  5.000000e+002  0.000000e+000  4.804009e-015
      vertex -5.000000e+002  1.714508e+003  1.500000e+002
    endloop
  endfacet
  facet normal  0.000000e+000 -8.715574e-002  9.961947e-001
    outer loop
      vertex -5.000000e+002  1.714508e+003  1.500000e+002
      vertex  5.000000e+002  0.000000e+000  4.804009e-015
      vertex  5.000000e+002  1.714508e+003  1.500000e+002
    endloop
  endfacet
  facet normal  0.000000e+000  0.000000e+000  1.000000e+000
    outer loop
      vertex -5.000000e+002  2.314508e+003  1.500000e+002
      vertex -5.000000e+002  1.714508e+003  1.500000e+002
      vertex  5.000000e+002  2.314508e+003  1.500000e+002
    endloop
  endfacet
  facet normal  0.000000e+000  0.000000e+000  1.000000e+000
    outer loop
      vertex  5.000000e+002  2.314508e+003  1.500000e+002
      vertex -5.000000e+002  1.714508e+003  1.500000e+002
      vertex  5.000000e+002  1.714508e+003  1.500000e+002
    endloop
  endfacet
  facet normal  0.000000e+000  1.000000e+000  0.000000e+000
    outer loop
      vertex -5.000000e+002  2.314508e+003  1.000000e+002
      vertex -5.000000e+002  2.314508e+003  1.500000e+002
      vertex  5.000000e+002  2.314508e+003  1.000000e+002
    endloop
  endfacet
  facet normal  0.000000e+000  1.000000e+000  -0.000000e+000
    outer loop
      vertex  5.000000e+002  2.314508e+003  1.000000e+002
      vertex -5.000000e+002  2.314508e+003  1.500000e+002
      vertex  5.000000e+002  2.314508e+003  1.500000e+002
    endloop
  endfacet
  facet normal  0.000000e+000  0.000000e+000  1.000000e+000
    outer loop
      vertex -5.000000e+002  2.914508e+003  1.000000e+002
      vertex -5.000000e+002  2.314508e+003  1.000000e+002
      vertex  5.000000e+002  2.914508e+003  1.000000e+002
    endloop
  endfacet
  facet normal  0.000000e+000  0.000000e+000  1.000000e+000
    outer loop
      vertex  5.000000e+002  2.914508e+003  1.000000e+002
      vertex -5.000000e+002  2.314508e+003  1.000000e+002
      vertex  5.000000e+002  2.314508e+003  1.000000e+002
    endloop
  endfacet
  facet normal  0.000000e+000  1.000000e+000  0.000000e+000
    outer loop
      vertex -5.000000e+002  2.914508e+003  5.000000e+001
      vertex -5.000000e+002  2.914508e+003  1.000000e+002
      vertex  5.000000e+002  2.914508e+003  5.000000e+001
    endloop
  endfacet
  facet normal  0.000000e+000  1.000000e+000  -0.000000e+000
    outer loop
      vertex  5.000000e+002  2.914508e+003  5.000000e+001
      vertex -5.000000e+002  2.914508e+003  1.000000e+002
      vertex  5.000000e+002  2.914508e+003  1.000000e+002
    endloop
  endfacet
  facet normal  0.000000e+000  0.000000e+000  1.000000e+000
    outer loop
      vertex -5.000000e+002  3.514508e+003  5.000000e+001
      vertex -5.000000e+002  2.914508e+003  5.000000e+001
      vertex  5.000000e+002  3.514508e+003  5.000000e+001
    endloop
  endfacet
  facet normal  0.000000e+000  0.000000e+000  1.000000e+000
    outer loop
      vertex  5.000000e+002  3.514508e+003  5.000000e+001
      vertex -5.000000e+002  2.914508e+003  5.000000e+001
      vertex  5.000000e+002  2.914508e+003  5.000000e+001
    endloop
  endfacet
  facet normal  0.000000e+000  1.000000e+000  0.000000e+000
    outer loop
      vertex -5.000000e+002  3.514508e+003 -7.990935e-014
      vertex -5.000000e+002  3.514508e+003  5.000000e+001
      vertex  5.000000e+002  3.514508e+003 -7.990935e-014
    endloop
  endfacet
  facet normal  0.000000e+000  1.000000e+000  -0.000000e+000
    outer loop
      vertex  5.000000e+002  3.514508e+003 -7.990935e-014
      vertex -5.000000e+002  3.514508e+003  5.000000e+001
      vertex  5.000000e+002  3.514508e+003  5.000000e+001
    endloop
  endfacet
  facet normal  -0.000000e+000 -2.410391e-017 -1.000000e+000
    outer loop
      vertex -5.000000e+002  3.514508e+003 -7.990935e-014
      vertex  5.000000e+002  3.514508e+003 -7.990935e-014
      vertex -5.000000e+002  0.000000e+000  4.804009e-015
    endloop
  endfacet
  facet normal  0.000000e+000 -2.410391e-017 -1.000000e+000
    outer loop
      vertex -5.000000e+002  0.000000e+000  4.804009e-015
      vertex  5.000000e+002  3.514508e+003 -7.990935e-014
      vertex  5.000000e+002  0.000000e+000  4.804009e-015
    endloop
  endfacet
endsolid CATIA STL
