solid CATIA STL
  facet normal  1.000000e+000  0.000000e+000  -0.000000e+000
    outer loop
      vertex  5.000000e+002  0.000000e+000  4.804009e-015
      vertex  5.000000e+002  2.695692e+003 -6.017270e-014
      vertex  5.000000e+002  2.695692e+003  8.000000e+001
    endloop
  endfacet
  facet normal  1.000000e+000  0.000000e+000  0.000000e+000
    outer loop
      vertex  5.000000e+002  0.000000e+000  4.804009e-015
      vertex  5.000000e+002  2.695692e+003  8.000000e+001
      vertex  5.000000e+002  2.095692e+003  8.000000e+001
    endloop
  endfacet
  facet normal  1.000000e+000  0.000000e+000  -0.000000e+000
    outer loop
      vertex  5.000000e+002  0.000000e+000  4.804009e-015
      vertex  5.000000e+002  2.095692e+003  8.000000e+001
      vertex  5.000000e+002  2.095692e+003  1.600000e+002
    endloop
  endfacet
  facet normal  1.000000e+000  0.000000e+000  0.000000e+000
    outer loop
      vertex  5.000000e+002  0.000000e+000  4.804009e-015
      vertex  5.000000e+002  2.095692e+003  1.600000e+002
      vertex  5.000000e+002  1.495692e+003  1.600000e+002
    endloop
  endfacet
  facet normal  1.000000e+000  0.000000e+000  -0.000000e+000
    outer loop
      vertex  5.000000e+002  0.000000e+000  4.804009e-015
      vertex  5.000000e+002  1.495692e+003  1.600000e+002
      vertex  5.000000e+002  1.495692e+003  2.400000e+002
    endloop
  endfacet
  facet normal  9.999999e-001  0.000000e+000  0.000000e+000
    outer loop
      vertex  5.000000e+002  0.000000e+000  4.804009e-015
      vertex  5.000000e+002  1.495692e+003  2.400000e+002
      vertex  5.000000e+002  8.956922e+002  2.400000e+002
    endloop
  endfacet
  facet normal -9.999999e-001  0.000000e+000  -0.000000e+000
    outer loop
      vertex -5.000000e+002  0.000000e+000  4.804009e-015
      vertex -5.000000e+002  8.956922e+002  2.400000e+002
      vertex -5.000000e+002  1.495692e+003  2.400000e+002
    endloop
  endfacet
  facet normal -1.000000e+000  0.000000e+000  -0.000000e+000
    outer loop
      vertex -5.000000e+002  0.000000e+000  4.804009e-015
      vertex -5.000000e+002  1.495692e+003  2.400000e+002
      vertex -5.000000e+002  1.495692e+003  1.600000e+002
    endloop
  endfacet
  facet normal -1.000000e+000  0.000000e+000  -0.000000e+000
    outer loop
      vertex -5.000000e+002  0.000000e+000  4.804009e-015
      vertex -5.000000e+002  1.495692e+003  1.600000e+002
      vertex -5.000000e+002  2.095692e+003  1.600000e+002
    endloop
  endfacet
  facet normal -1.000000e+000  0.000000e+000  -0.000000e+000
    outer loop
      vertex -5.000000e+002  0.000000e+000  4.804009e-015
      vertex -5.000000e+002  2.095692e+003  1.600000e+002
      vertex -5.000000e+002  2.095692e+003  8.000000e+001
    endloop
  endfacet
  facet normal -1.000000e+000  0.000000e+000  -0.000000e+000
    outer loop
      vertex -5.000000e+002  0.000000e+000  4.804009e-015
      vertex -5.000000e+002  2.095692e+003  8.000000e+001
      vertex -5.000000e+002  2.695692e+003  8.000000e+001
    endloop
  endfacet
  facet normal -1.000000e+000  0.000000e+000  -0.000000e+000
    outer loop
      vertex -5.000000e+002  0.000000e+000  4.804009e-015
      vertex -5.000000e+002  2.695692e+003  8.000000e+001
      vertex -5.000000e+002  2.695692e+003 -6.017270e-014
    endloop
  endfacet
  facet normal  0.000000e+000 -2.588190e-001  9.659258e-001
    outer loop
      vertex -5.000000e+002  8.956922e+002  2.400000e+002
      vertex -5.000000e+002  0.000000e+000  4.804009e-015
      vertex  5.000000e+002  8.956922e+002  2.400000e+002
    endloop
  endfacet
  facet normal  0.000000e+000 -2.588190e-001  9.659258e-001
    outer loop
      vertex  5.000000e+002  8.956922e+002  2.400000e+002
      vertex -5.000000e+002  0.000000e+000  4.804009e-015
      vertex  5.000000e+002  0.000000e+000  4.804009e-015
    endloop
  endfacet
  facet normal  0.000000e+000  0.000000e+000  1.000000e+000
    outer loop
      vertex -5.000000e+002  1.495692e+003  2.400000e+002
      vertex -5.000000e+002  8.956922e+002  2.400000e+002
      vertex  5.000000e+002  1.495692e+003  2.400000e+002
    endloop
  endfacet
  facet normal  0.000000e+000  0.000000e+000  1.000000e+000
    outer loop
      vertex  5.000000e+002  1.495692e+003  2.400000e+002
      vertex -5.000000e+002  8.956922e+002  2.400000e+002
      vertex  5.000000e+002  8.956922e+002  2.400000e+002
    endloop
  endfacet
  facet normal  0.000000e+000  1.000000e+000  0.000000e+000
    outer loop
      vertex -5.000000e+002  1.495692e+003  1.600000e+002
      vertex -5.000000e+002  1.495692e+003  2.400000e+002
      vertex  5.000000e+002  1.495692e+003  1.600000e+002
    endloop
  endfacet
  facet normal  0.000000e+000  1.000000e+000  -0.000000e+000
    outer loop
      vertex  5.000000e+002  1.495692e+003  1.600000e+002
      vertex -5.000000e+002  1.495692e+003  2.400000e+002
      vertex  5.000000e+002  1.495692e+003  2.400000e+002
    endloop
  endfacet
  facet normal  0.000000e+000  0.000000e+000  1.000000e+000
    outer loop
      vertex -5.000000e+002  2.095692e+003  1.600000e+002
      vertex -5.000000e+002  1.495692e+003  1.600000e+002
      vertex  5.000000e+002  2.095692e+003  1.600000e+002
    endloop
  endfacet
  facet normal  0.000000e+000  0.000000e+000  1.000000e+000
    outer loop
      vertex  5.000000e+002  2.095692e+003  1.600000e+002
      vertex -5.000000e+002  1.495692e+003  1.600000e+002
      vertex  5.000000e+002  1.495692e+003  1.600000e+002
    endloop
  endfacet
  facet normal  0.000000e+000  1.000000e+000  0.000000e+000
    outer loop
      vertex -5.000000e+002  2.095692e+003  8.000000e+001
      vertex -5.000000e+002  2.095692e+003  1.600000e+002
      vertex  5.000000e+002  2.095692e+003  8.000000e+001
    endloop
  endfacet
  facet normal  0.000000e+000  1.000000e+000  -0.000000e+000
    outer loop
      vertex  5.000000e+002  2.095692e+003  8.000000e+001
      vertex -5.000000e+002  2.095692e+003  1.600000e+002
      vertex  5.000000e+002  2.095692e+003  1.600000e+002
    endloop
  endfacet
  facet normal  0.000000e+000  0.000000e+000  1.000000e+000
    outer loop
      vertex -5.000000e+002  2.695692e+003  8.000000e+001
      vertex -5.000000e+002  2.095692e+003  8.000000e+001
      vertex  5.000000e+002  2.695692e+003  8.000000e+001
    endloop
  endfacet
  facet normal  0.000000e+000  0.000000e+000  1.000000e+000
    outer loop
      vertex  5.000000e+002  2.695692e+003  8.000000e+001
      vertex -5.000000e+002  2.095692e+003  8.000000e+001
      vertex  5.000000e+002  2.095692e+003  8.000000e+001
    endloop
  endfacet
  facet normal  0.000000e+000  1.000000e+000  0.000000e+000
    outer loop
      vertex -5.000000e+002  2.695692e+003 -6.017270e-014
      vertex -5.000000e+002  2.695692e+003  8.000000e+001
      vertex  5.000000e+002  2.695692e+003 -6.017270e-014
    endloop
  endfacet
  facet normal  0.000000e+000  1.000000e+000  -0.000000e+000
    outer loop
      vertex  5.000000e+002  2.695692e+003 -6.017270e-014
      vertex -5.000000e+002  2.695692e+003  8.000000e+001
      vertex  5.000000e+002  2.695692e+003  8.000000e+001
    endloop
  endfacet
  facet normal  -0.000000e+000 -2.410391e-017 -1.000000e+000
    outer loop
      vertex -5.000000e+002  2.695692e+003 -6.017270e-014
      vertex  5.000000e+002  2.695692e+003 -6.017270e-014
      vertex -5.000000e+002  0.000000e+000  4.804009e-015
    endloop
  endfacet
  facet normal  0.000000e+000 -2.410391e-017 -1.000000e+000
    outer loop
      vertex -5.000000e+002  0.000000e+000  4.804009e-015
      vertex  5.000000e+002  2.695692e+003 -6.017270e-014
      vertex  5.000000e+002  0.000000e+000  4.804009e-015
    endloop
  endfacet
endsolid CATIA STL
