solid CATIA STL
  facet normal  1.000000e+000  0.000000e+000  -0.000000e+000
    outer loop
      vertex  5.000000e+002  0.000000e+000  4.804009e-015
      vertex  5.000000e+002  2.650692e+003 -5.908803e-014
      vertex  5.000000e+002  2.650692e+003  5.000000e+001
    endloop
  endfacet
  facet normal  1.000000e+000  0.000000e+000  0.000000e+000
    outer loop
      vertex  5.000000e+002  0.000000e+000  4.804009e-015
      vertex  5.000000e+002  2.650692e+003  5.000000e+001
      vertex  5.000000e+002  2.050692e+003  5.000000e+001
    endloop
  endfacet
  facet normal  1.000000e+000  0.000000e+000  -0.000000e+000
    outer loop
      vertex  5.000000e+002  0.000000e+000  4.804009e-015
      vertex  5.000000e+002  2.050692e+003  5.000000e+001
      vertex  5.000000e+002  2.050692e+003  1.000000e+002
    endloop
  endfacet
  facet normal  1.000000e+000  0.000000e+000  0.000000e+000
    outer loop
      vertex  5.000000e+002  0.000000e+000  4.804009e-015
      vertex  5.000000e+002  2.050692e+003  1.000000e+002
      vertex  5.000000e+002  1.450692e+003  1.000000e+002
    endloop
  endfacet
  facet normal  1.000000e+000  0.000000e+000  -0.000000e+000
    outer loop
      vertex  5.000000e+002  0.000000e+000  4.804009e-015
      vertex  5.000000e+002  1.450692e+003  1.000000e+002
      vertex  5.000000e+002  1.450692e+003  1.500000e+002
    endloop
  endfacet
  facet normal  1.000000e+000  0.000000e+000  0.000000e+000
    outer loop
      vertex  5.000000e+002  0.000000e+000  4.804009e-015
      vertex  5.000000e+002  1.450692e+003  1.500000e+002
      vertex  5.000000e+002  8.506923e+002  1.500000e+002
    endloop
  endfacet
  facet normal -1.000000e+000  0.000000e+000  -0.000000e+000
    outer loop
      vertex -5.000000e+002  0.000000e+000  4.804009e-015
      vertex -5.000000e+002  8.506923e+002  1.500000e+002
      vertex -5.000000e+002  1.450692e+003  1.500000e+002
    endloop
  endfacet
  facet normal -1.000000e+000  0.000000e+000  -0.000000e+000
    outer loop
      vertex -5.000000e+002  0.000000e+000  4.804009e-015
      vertex -5.000000e+002  1.450692e+003  1.500000e+002
      vertex -5.000000e+002  1.450692e+003  1.000000e+002
    endloop
  endfacet
  facet normal -1.000000e+000  0.000000e+000  -0.000000e+000
    outer loop
      vertex -5.000000e+002  0.000000e+000  4.804009e-015
      vertex -5.000000e+002  1.450692e+003  1.000000e+002
      vertex -5.000000e+002  2.050692e+003  1.000000e+002
    endloop
  endfacet
  facet normal -1.000000e+000  0.000000e+000  -0.000000e+000
    outer loop
      vertex -5.000000e+002  0.000000e+000  4.804009e-015
      vertex -5.000000e+002  2.050692e+003  1.000000e+002
      vertex -5.000000e+002  2.050692e+003  5.000000e+001
    endloop
  endfacet
  facet normal -1.000000e+000  0.000000e+000  -0.000000e+000
    outer loop
      vertex -5.000000e+002  0.000000e+000  4.804009e-015
      vertex -5.000000e+002  2.050692e+003  5.000000e+001
      vertex -5.000000e+002  2.650692e+003  5.000000e+001
    endloop
  endfacet
  facet normal -1.000000e+000  0.000000e+000  -0.000000e+000
    outer loop
      vertex -5.000000e+002  0.000000e+000  4.804009e-015
      vertex -5.000000e+002  2.650692e+003  5.000000e+001
      vertex -5.000000e+002  2.650692e+003 -5.908803e-014
    endloop
  endfacet
  facet normal  0.000000e+000 -1.736482e-001  9.848077e-001
    outer loop
      vertex -5.000000e+002  8.506923e+002  1.500000e+002
      vertex -5.000000e+002  0.000000e+000  4.804009e-015
      vertex  5.000000e+002  8.506923e+002  1.500000e+002
    endloop
  endfacet
  facet normal  0.000000e+000 -1.736482e-001  9.848077e-001
    outer loop
      vertex  5.000000e+002  8.506923e+002  1.500000e+002
      vertex -5.000000e+002  0.000000e+000  4.804009e-015
      vertex  5.000000e+002  0.000000e+000  4.804009e-015
    endloop
  endfacet
  facet normal  0.000000e+000  0.000000e+000  1.000000e+000
    outer loop
      vertex -5.000000e+002  1.450692e+003  1.500000e+002
      vertex -5.000000e+002  8.506923e+002  1.500000e+002
      vertex  5.000000e+002  1.450692e+003  1.500000e+002
    endloop
  endfacet
  facet normal  0.000000e+000  0.000000e+000  1.000000e+000
    outer loop
      vertex  5.000000e+002  1.450692e+003  1.500000e+002
      vertex -5.000000e+002  8.506923e+002  1.500000e+002
      vertex  5.000000e+002  8.506923e+002  1.500000e+002
    endloop
  endfacet
  facet normal  0.000000e+000  1.000000e+000  0.000000e+000
    outer loop
      vertex -5.000000e+002  1.450692e+003  1.000000e+002
      vertex -5.000000e+002  1.450692e+003  1.500000e+002
      vertex  5.000000e+002  1.450692e+003  1.000000e+002
    endloop
  endfacet
  facet normal  0.000000e+000  1.000000e+000  -0.000000e+000
    outer loop
      vertex  5.000000e+002  1.450692e+003  1.000000e+002
      vertex -5.000000e+002  1.450692e+003  1.500000e+002
      vertex  5.000000e+002  1.450692e+003  1.500000e+002
    endloop
  endfacet
  facet normal  0.000000e+000  0.000000e+000  1.000000e+000
    outer loop
      vertex -5.000000e+002  2.050692e+003  1.000000e+002
      vertex -5.000000e+002  1.450692e+003  1.000000e+002
      vertex  5.000000e+002  2.050692e+003  1.000000e+002
    endloop
  endfacet
  facet normal  0.000000e+000  0.000000e+000  1.000000e+000
    outer loop
      vertex  5.000000e+002  2.050692e+003  1.000000e+002
      vertex -5.000000e+002  1.450692e+003  1.000000e+002
      vertex  5.000000e+002  1.450692e+003  1.000000e+002
    endloop
  endfacet
  facet normal  0.000000e+000  1.000000e+000  0.000000e+000
    outer loop
      vertex -5.000000e+002  2.050692e+003  5.000000e+001
      vertex -5.000000e+002  2.050692e+003  1.000000e+002
      vertex  5.000000e+002  2.050692e+003  5.000000e+001
    endloop
  endfacet
  facet normal  0.000000e+000  1.000000e+000  -0.000000e+000
    outer loop
      vertex  5.000000e+002  2.050692e+003  5.000000e+001
      vertex -5.000000e+002  2.050692e+003  1.000000e+002
      vertex  5.000000e+002  2.050692e+003  1.000000e+002
    endloop
  endfacet
  facet normal  0.000000e+000  0.000000e+000  1.000000e+000
    outer loop
      vertex -5.000000e+002  2.650692e+003  5.000000e+001
      vertex -5.000000e+002  2.050692e+003  5.000000e+001
      vertex  5.000000e+002  2.650692e+003  5.000000e+001
    endloop
  endfacet
  facet normal  0.000000e+000  0.000000e+000  1.000000e+000
    outer loop
      vertex  5.000000e+002  2.650692e+003  5.000000e+001
      vertex -5.000000e+002  2.050692e+003  5.000000e+001
      vertex  5.000000e+002  2.050692e+003  5.000000e+001
    endloop
  endfacet
  facet normal  0.000000e+000  1.000000e+000  0.000000e+000
    outer loop
      vertex -5.000000e+002  2.650692e+003 -5.908803e-014
      vertex -5.000000e+002  2.650692e+003  5.000000e+001
      vertex  5.000000e+002  2.650692e+003 -5.908803e-014
    endloop
  endfacet
  facet normal  0.000000e+000  1.000000e+000  -0.000000e+000
    outer loop
      vertex  5.000000e+002  2.650692e+003 -5.908803e-014
      vertex -5.000000e+002  2.650692e+003  5.000000e+001
      vertex  5.000000e+002  2.650692e+003  5.000000e+001
    endloop
  endfacet
  facet normal  -0.000000e+000 -2.410390e-017 -1.000000e+000
    outer loop
      vertex -5.000000e+002  2.650692e+003 -5.908803e-014
      vertex  5.000000e+002  2.650692e+003 -5.908803e-014
      vertex -5.000000e+002  0.000000e+000  4.804009e-015
    endloop
  endfacet
  facet normal  0.000000e+000 -2.410390e-017 -1.000000e+000
    outer loop
      vertex -5.000000e+002  0.000000e+000  4.804009e-015
      vertex  5.000000e+002  2.650692e+003 -5.908803e-014
      vertex  5.000000e+002  0.000000e+000  4.804009e-015
    endloop
  endfacet
endsolid CATIA STL
